<?xml version="1.0" encoding="UTF-8"?>
<svg id="Layer_1" data-name="Layer 1" xmlns="http://www.w3.org/2000/svg" viewBox="0 0 270.29 118.5">
  <defs>
    <style>
      .cls-1 {
        fill: none;
        stroke-width: 1.42px;
      }

      .cls-1, .cls-2 {
        stroke: #1a1a18;
        stroke-miterlimit: 22.93;
      }

      .cls-3, .cls-4 {
        fill: #fff;
      }

      .cls-5, .cls-6, .cls-2 {
        fill: #1a1a18;
      }

      .cls-6, .cls-7, .cls-4 {
        fill-rule: evenodd;
      }

      .cls-7 {
        fill: #ef7c00;
      }

      .cls-2 {
        stroke-width: .57px;
      }
    </style>
  </defs>
  <g>
    <rect class="cls-5" width="70.87" height="113.39" rx="3.54" ry="3.54"/>
    <rect class="cls-3" x="56.69" width="4.25" height="113.39"/>
    <path class="cls-4" d="m35.79,8.5h4.86c.15,0,.27.11.27.24v9.64c0,.13-.12.24-.27.24h-4.86c-.15,0-.27-.11-.27-.24v-9.64c0-.13.12-.24.27-.24Z"/>
    <path class="cls-4" d="m17.79,19.27h4.86c.15,0,.27.11.27.24v9.64c0,.13-.12.24-.27.24h-4.86c-.15,0-.27-.11-.27-.24v-9.64c0-.13.12-.24.27-.24Z"/>
    <path class="cls-4" d="m36.27,33.73h4.86c.15,0,.27.11.27.24v9.64c0,.13-.12.24-.27.24h-4.86c-.15,0-.27-.11-.27-.24v-9.64c0-.13.12-.24.27-.24Z"/>
    <path class="cls-4" d="m27.03,52.5h4.86c.15,0,.27.11.27.24v9.64c0,.13-.12.24-.27.24h-4.86c-.15,0-.27-.11-.27-.24v-9.64c0-.13.12-.24.27-.24Z"/>
    <path class="cls-4" d="m11.98,38.79h4.86c.15,0,.27.11.27.24v9.64c0,.13-.12.24-.27.24h-4.86c-.15,0-.27-.11-.27-.24v-9.64c0-.13.12-.24.27-.24Z"/>
    <path class="cls-4" d="m10.19,63.53h4.86c.15,0,.27.11.27.24v9.64c0,.13-.12.24-.27.24h-4.86c-.15,0-.27-.11-.27-.24v-9.64c0-.13.12-.24.27-.24Z"/>
    <path class="cls-4" d="m23.16,70.53h4.86c.15,0,.27.11.27.24v9.64c0,.13-.12.24-.27.24h-4.86c-.15,0-.27-.11-.27-.24v-9.64c0-.13.12-.24.27-.24Z"/>
    <path class="cls-4" d="m23.2,34.12h3.64c.11,0,.2.08.2.17v6.81c0,.1-.09.17-.2.17h-3.64c-.11,0-.2-.08-.2-.17v-6.81c0-.09.09-.17.2-.17Z"/>
    <path class="cls-4" d="m42.43,85.73h3.64c.11,0,.2.09.2.19v7.71c0,.11-.09.19-.2.19h-3.64c-.11,0-.2-.09-.2-.19v-7.71c0-.11.09-.19.2-.19Z"/>
    <path class="cls-4" d="m26.74,92.58h3.64c.11,0,.2.08.2.17v6.81c0,.09-.09.17-.2.17h-3.64c-.11,0-.2-.08-.2-.17v-6.81c0-.09.09-.17.2-.17Z"/>
    <path class="cls-4" d="m41.91,46.44h4.86c.15,0,.27.11.27.24v9.64c0,.13-.12.24-.27.24h-4.86c-.15,0-.27-.11-.27-.24v-9.64c0-.13.12-.24.27-.24Z"/>
  </g>
  <path class="cls-6" d="m98.35,71.48v9.12c0,2.93-1.99,4.06-4.15,4.06-2.35,0-4.06-1.42-4.06-3.77v-9.41h-4.08v9.31c0,5.06,3.43,7.27,8.18,7.27,4.49,0,8.18-1.87,8.18-7.3v-9.29h-4.08Z"/>
  <path class="cls-6" d="m109.01,76.78h-3.48v11.06h3.48v-4.78c.77-2.04,1.58-3.24,2.86-3.24.55,0,1.15.24,2.06.82l.96-3.07c-1.01-.74-1.61-1.01-2.3-1.01-1.34,0-2.5,1.08-3.53,3.38h-.05v-3.17Z"/>
  <path class="cls-6" d="m119.49,71.48h-3.48v16.37h3.48v-.84c.96.7,1.99,1.06,3.1,1.06,3.02,0,5.16-2.38,5.16-5.78s-2.21-5.71-5.4-5.71c-1.08,0-1.75.19-2.86.84v-5.93h0Zm0,8.18c.82-.58,1.34-.77,2.02-.77,1.44,0,2.71.98,2.71,3.34s-1.03,3.5-2.66,3.5c-.7,0-1.32-.29-2.06-.94v-5.14Z"/>
  <path class="cls-6" d="m141.22,85.11c-.82.58-1.08.62-1.32.62-.36,0-.58-.22-.58-.77v-5.04c0-2.42-1.9-3.36-4.68-3.36-1.75,0-3.36.46-4.8,1.34v2.83c1.1-1.13,2.69-1.85,4.08-1.85,1.51,0,1.99.82,1.92,1.85-4.63,1.44-6.58,1.97-6.58,4.61,0,1.39,1.32,2.71,3.1,2.71,1.2,0,2.3-.34,3.65-1.25.24.89.79,1.25,1.94,1.25.94,0,2.3-.43,3.26-1.01v-1.94h0Zm-5.38.05c-.58.53-1.27.84-1.92.84s-1.13-.53-1.13-1.18c0-1.1.98-1.58,3.05-2.33v2.66Z"/>
  <path class="cls-6" d="m146.01,76.78h-3.48v11.06h3.48v-7.13c.91-1.37,1.56-1.82,2.42-1.82.98,0,1.73.65,1.73,2.21v6.74h3.48v-7.03c0-3.26-2.3-4.25-4.03-4.25-1.42,0-2.5.53-3.6,1.8v-1.58Z"/>
  <path class="cls-6" d="m174.57,72.54c-2.06-.89-3.72-1.27-5.54-1.27-3.79,0-6.24,1.87-6.24,4.7,0,5.88,8.33,4.9,8.33,7.58,0,.96-.84,1.51-2.4,1.51-1.8,0-3.24-.55-5.59-2.11v3.53c1.63.84,3.05,1.58,5.9,1.58,3.65,0,6.29-1.82,6.29-4.97,0-5.71-8.33-5.02-8.33-7.49,0-.82.94-1.34,2.4-1.34s2.81.41,5.18,1.46v-3.19Z"/>
  <polygon class="cls-6" points="181.1 71.48 177.62 71.48 177.62 87.85 181.1 87.85 181.1 82.4 181.15 82.4 185.45 87.85 189.72 87.85 185.21 82.26 189.53 76.78 185.45 76.78 181.15 82.26 181.1 82.26 181.1 71.48"/>
  <path class="cls-6" d="m200.75,84.42c-1.63,1.18-2.71,1.58-4.1,1.58-2.18,0-3.53-1.15-3.65-3.12h7.94c.17-4.03-2.5-6.31-5.71-6.31-3.41,0-5.83,2.4-5.83,5.78s2.52,5.71,6.41,5.71c.86,0,2.95,0,4.94-1.46v-2.18h0Zm-7.68-3.36c.14-1.54,1.03-2.42,2.4-2.42s2.26.91,2.4,2.42h-4.8Z"/>
  <path class="cls-6" d="m211.01,76.78h-4.03v-3.48h-.43l-4.63,5.18v.67h1.58v4.75c0,3.1,1.99,4.15,4.3,4.15,1.08,0,1.99-.19,3.22-.7v-2.52c-.94.48-1.61.65-2.33.65-1.08,0-1.7-.7-1.7-1.78v-4.56h4.03v-2.38Z"/>
  <path class="cls-6" d="m222.34,84.82c-1.54.58-2.28.77-3.12.77-1.99,0-3.31-1.3-3.31-3.26s1.34-3.19,3.43-3.19c.86,0,1.92.26,2.83.74v-2.59c-1.15-.43-2.59-.72-3.72-.72-3.65,0-6.26,2.4-6.26,5.78s2.52,5.71,6.41,5.71c1.18,0,2.35-.24,3.74-.74v-2.5Z"/>
  <path class="cls-6" d="m228.07,71.48h-3.48v16.37h3.48v-7.06c.82-1.18,1.51-1.68,2.33-1.68,1.08,0,1.8.77,1.8,2.42v6.31h3.48v-7.06c0-3-2.04-4.22-4.06-4.22-1.37,0-2.5.58-3.5,1.85h-.05v-6.94Z"/>
  <path class="cls-6" d="m249.2,84.42c-1.63,1.18-2.71,1.58-4.1,1.58-2.18,0-3.53-1.15-3.65-3.12h7.94c.17-4.03-2.5-6.31-5.71-6.31-3.41,0-5.83,2.4-5.83,5.78s2.52,5.71,6.41,5.71c.86,0,2.95,0,4.94-1.46v-2.18h0Zm-7.68-3.36c.14-1.54,1.03-2.42,2.4-2.42s2.26.91,2.4,2.42h-4.8Z"/>
  <path class="cls-6" d="m255.09,76.78h-3.48v11.06h3.48v-4.78c.77-2.04,1.58-3.24,2.86-3.24.55,0,1.15.24,2.06.82l.96-3.07c-1.01-.74-1.61-1.01-2.3-1.01-1.34,0-2.5,1.08-3.53,3.38h-.05v-3.17Z"/>
  <path class="cls-6" d="m269.74,77.38c-1.15-.58-2.18-.82-3.58-.82-2.74,0-4.58,1.37-4.58,3.41,0,3.62,5.5,3.34,5.5,4.94,0,.5-.65.82-1.68.82-1.32,0-2.45-.46-3.58-.94v2.45c.48.26,2.18.82,3.96.82,2.88,0,4.51-1.3,4.51-3.6,0-3.7-5.5-3.74-5.5-4.97,0-.77.79-.86,1.25-.86.7,0,2.18.29,3.7,1.22v-2.47Z"/>
  <path class="cls-6" d="m86.06,113.01v-16.39h5.18c1.56,0,2.81.41,3.74,1.27.94.84,1.39,1.97,1.39,3.38,0,.96-.24,1.8-.72,2.54-.48.72-1.13,1.27-1.94,1.58-.84.34-2.02.5-3.58.5h-1.73v7.1h-2.35Zm4.78-14.3h-2.42v5.11h2.57c.96,0,1.68-.22,2.21-.67.5-.46.77-1.08.77-1.92,0-1.68-1.03-2.52-3.12-2.52Z"/>
  <path class="cls-6" d="m104.9,106.53v4.58c0,.36.12.55.38.55s.65-.19,1.2-.58v1.3c-.48.31-.86.53-1.15.65-.31.1-.6.17-.94.17-.91,0-1.44-.36-1.61-1.08-.91.7-1.87,1.06-2.9,1.06-.74,0-1.37-.24-1.87-.74s-.74-1.13-.74-1.87c0-.67.24-1.3.72-1.82.5-.53,1.2-.96,2.09-1.27l2.74-.94v-.58c0-1.3-.65-1.94-1.94-1.94-1.18,0-2.3.6-3.41,1.8v-2.33c.84-.98,2.02-1.46,3.58-1.46,1.18,0,2.09.31,2.81.91.24.19.43.46.62.79.19.31.31.65.36.96.05.34.07.94.07,1.85h0Zm-2.09,4.34v-3.19l-1.44.55c-.72.29-1.22.58-1.54.86-.29.29-.46.67-.46,1.1s.14.82.43,1.08c.29.29.65.43,1.1.43.7,0,1.32-.29,1.9-.84Z"/>
  <path class="cls-6" d="m108,118.5v-16.27h3.74c1.92,0,3.41.48,4.46,1.42,1.08.96,1.61,2.3,1.61,4.01,0,1.61-.5,2.95-1.51,3.98s-2.28,1.56-3.84,1.56c-.67,0-1.44-.17-2.28-.46v5.76h-2.18Zm3.7-14.28h-1.51v6.62c.65.34,1.34.5,2.06.5,1.01,0,1.82-.34,2.45-1.03.65-.7.96-1.61.96-2.69,0-.7-.14-1.32-.46-1.87-.29-.53-.7-.94-1.22-1.18s-1.27-.36-2.28-.36Z"/>
  <path class="cls-6" d="m120.09,96.64h2.14v7.01c.89-1.08,1.99-1.63,3.31-1.63.72,0,1.37.17,1.94.53.55.36.98.86,1.27,1.49.26.65.41,1.58.41,2.83v6.14h-2.14v-6.67c0-.79-.19-1.42-.58-1.9-.38-.48-.89-.72-1.54-.72-.46,0-.91.12-1.32.36s-.86.65-1.37,1.2v7.73h-2.14v-16.37Z"/>
  <path class="cls-6" d="m137.3,102.21c1.63,0,3,.53,4.08,1.58s1.63,2.38,1.63,3.98-.55,2.86-1.66,3.89c-1.1,1.01-2.47,1.54-4.15,1.54s-2.98-.53-4.06-1.56c-1.08-1.06-1.63-2.35-1.63-3.91s.55-2.9,1.66-3.96c1.08-1.03,2.47-1.56,4.13-1.56h0Zm-.12,1.92c-1.03,0-1.87.34-2.52,1.01-.65.67-.98,1.54-.98,2.57s.34,1.87,1.01,2.52c.67.65,1.54.98,2.59.98s1.9-.34,2.57-.98c.67-.67,1.01-1.51,1.01-2.54s-.36-1.87-1.06-2.54c-.7-.67-1.56-1.01-2.62-1.01Z"/>
  <path class="cls-6" d="m144.86,112.24v-2.3c.6.43,1.22.77,1.85,1.03.62.26,1.15.38,1.58.38.46,0,.84-.1,1.15-.34.31-.22.48-.48.48-.77,0-.31-.1-.58-.31-.79-.22-.19-.65-.5-1.34-.89-1.37-.77-2.28-1.42-2.69-1.97-.43-.53-.65-1.13-.65-1.78,0-.82.31-1.49.96-2.02.65-.53,1.49-.79,2.5-.79s2.14.29,3.24.89v2.11c-1.25-.77-2.3-1.15-3.1-1.15-.41,0-.74.1-1.01.26-.24.17-.38.41-.38.7,0,.26.12.5.36.72.22.22.62.5,1.2.82l.77.43c1.8,1.03,2.69,2.14,2.69,3.38,0,.89-.34,1.61-1.03,2.16-.7.58-1.58.86-2.66.86-.65,0-1.22-.07-1.7-.22-.5-.12-1.13-.38-1.9-.74Z"/>
  <g>
    <g>
      <path class="cls-7" d="m168.47,40.04c.6-2.08-.44-2.06-.9-3.72-.27-.99-.24-1.12-.8-1.8-.4-.48-.79-.89-1.14-1.44-.81-1.28-.57-2.36-1.7-3.4-1.01-.93-.96-2.38-1.11-3.65-.14-1.25.5-3.06,1.63-3.99.62-.51.78-1.12,1.19-1.52,1.52-1.52,2.69,0,3.84-.19.75-.12,1.38.13,2.05-.25.95-.53.42-1.18,2.4-2.99.8-.73,2.2-1.54,3.17-2.03.74-.37,1.61-.2,3.66-1.1,1.71-.75,2.27.06,3.82-1.07.98-.72,1.63-1.57,3.08-1.96,2.93-.8,1.9-.41,3.24-1.95,1.22-1.4,1.5-1.28,3.3-1.62,1.11-.21.99-.6,1.97-.57.53.01,1.55-.04,2.01-.26.77-.37,1.88-2.6,1.9-3.72-1.97-.97-2.39.37-3.92.5-1.15.1-.29-.08-1.13.34-.68.34-1.96.02-2.83.1-1.09.1-1.05.59-2.45.6-2.39.03-3.14,1.65-4.39,2.09-.84.29-1.57.21-2.54.52-.97.32-1.49.56-2.56.15-1.58-.61-1.37-.32-2.35.53-2.17,1.87-1.57,1.58-4.29,2.21-.97.22-1.21.57-2.3.88-.78.22-1.68.44-2.41.68-2.09.69-5.93,1.41-7.96,1.05-2.07-.37-3.48-1.12-5.68.33-2.83,1.86-3.41.73-5.05.67-.85-.03-.4.27-1.24.4l-4.28-.03c-.71-.05-1.06-.26-1.74-.4-.64-.12-.92-.02-1.46-.12-.61-.11-.84-.38-1.38-.55-.49-.16-1.07-.21-1.57-.32-.88-.21-.7-.34-1.3-.62-1.18-.56-3.31-.72-4.36-1.11-1.23-.47-.57-.99-2.5-.85-1.08.08-1.5-.61-2.57-.98-1.2-.41-1.9.77-3.78-.76-.57-.47-.51-.33-1.28-.56-1.28-.38-1.28-.9-2.07-1.45-.47-.32-.71-.31-1.13-.77-.42-.45-.39-.6-1.26-.54l-.76,3.43c.02.65,1.4,0-.86,6.16-1.11,3.03-1.41,2.89-3.53,3.97-1.18.6-1.26.5-2.34-.43l-2.27-1.65c-5.37-3.63-7.23-1.74-8.44-1.83-.68-.05-.68-.47-1.37,0-.4.27-.41.49-.92.88-1.26.96-.91.71-1.79,2.07-.89,1.38-1.68,1.8-3.08,2.36-.62.24-2.55,1.42-3.97-.15-.19-.21-.54-.88-.76-1.14-.27-.32-.67-.52-.91-.9-.49-.79-.18-1.79-1.55-1.99-1.85,1.02-1.95,3.91-1.29,5.53.36.88,1.22,1.39.36,2.78-.34.55-.65.46-.44,1.25.13.47.31.55.39,1.27.17,1.54-.98.47-.08,2.65.27.66-.05.7.4,1.38,1.05,1.58,1.88,1.06,1.7,3.5-.07.98-.03.74.09,1.48.11.68-.07.9-.14,1.61.2.78,2.11,1.87,2.6,2.66,1.56,2.53,3.59,2.07,4.82,3.25.44.42.64,1.03,1.16,1.4.69.5,1.03.35,1.78,1.02.71.63,2.37,1.85,3.45,1.72.89-.11.17-.27,1.03-.18.7.07.27.3,1.17.15.57-.1,1.16-.49,2-.39,1.37.16,3.12.1,3.85,1.19.57.85,1.21,2.29,1.27,3.44.06,1.13-.68.73-.48,1.79.7.65,2.04.49,2.99.73.98.25,1.3.82,2.53.96,1.54-1.85-1.03-1.59-.24-4.06.29-.9.57-1.46,1.25-1.81.63-.32,1.4-.89,1.82-.99.42-.1.76-.02,1.15-.13.53-.15.31-.23.95-.43,2.37-.76,5.15,1.4,7.57,1.08,1.27-.17.33-.83,2.13-.26.77.24,1.08.02,1.81-.07,1.58-.18,1.65-.52,2.61-.55,1.71-.05,1.39-1.17,4.19-1.1,1.41.04,1.28.24,2.08-.64,1.86-2.06,3.05-.08,4.13-.33,1.01-.34-.27-.84,2.62-2.44.97-3.41.3-7.11,6.21-5.6,2.22.56,2.21,1.12,3.59,2.56.68.71,1.24.59,2.19.38,1.33-.3.92-.32,1.63-1.3,1.69.17,2.87-.11,4.39.77.4.23.41.37.95.64,1,.49,1.44,1.3,2.72,1.25.54-1.03.5-1.05-.17-1.67Z"/>
      <path class="cls-7" d="m99.66,51.55c-.24-.15-.47-.29-.66-.39v.11s.66.29.66.29Z"/>
    </g>
    <rect class="cls-2" x="91.28" y="37.81" width="6" height="10.19"/>
    <rect class="cls-1" x="87.08" y="32.59" width="14.4" height="20.64"/>
  </g>
</svg>